<svg xmlns="http://www.w3.org/2000/svg" viewBox="0 0 511.7 511.7"><defs><pattern id="a" width="446.6" height="259.2" patternUnits="userSpaceOnUse"><path fill="none" d="M0 0h446.6v259.2H0z"/><path fill="#ed1c24" d="M378.8 190.7a32.8 32.8 0 0 1 11.5 22.7c1-10.2 3.2-18 8.2-24 0 0-6.3 3.1-8.6 9.2-3-5.2-11-8-11-8zM364.8 139.8c1.3 6 6.3 11.2 13 13.7a21.1 21.1 0 0 1 2.1-19.8 21.5 21.5 0 0 0 5.8 18 18.2 18.2 0 0 1 1-13.8c-.9 8.5 6.2 12.8 15.7 18.4a36.1 36.1 0 0 1 19.3 27.2c-3.5-6.8-10-13-28-17.2-22.2-5.2-30.3-12.4-28.9-26.5zM365.1 232c-4.7-4.6-6.9-12.2-7.3-21.7-.4-12.5-5.4-17.7-13.3-18.5 11.8 4.5 4.5 17 8 25.8-6.5-4.8-4.4-20.7-17.7-21.4 9.8 3.2 2.9 16.7 9.3 24.5-7.8-.1-11.4 6.1-21.5 3.2 4.7 3.7 10 6 18.8 6-6.2 3.8-9 8.6-11.3 15.3a43.2 43.2 0 0 1 35-13.2z"/><path fill="#ed1c24" d="M482.5 266.5c29.4 4 46.2 20.7 49.1 36.5-3.9-9.2-13-15.2-23.6-18.6 10.6 14 7.2 31.8 21.1 41.7-10.3-11-7.2-24.5-14.9-36.8 12.3 7 14.2 16.7 17 27.2 4.4 15.8 11.6 20 17.3 22.2a39.9 39.9 0 0 1-36.8-20.1c-8.6-16.5-1.5-34.4-22.5-43.8 9.6 8 14.7 19.5 8.7 34.4 2.3-21.9-20.6-25.5-24.3-40.4-.6 11.5 7.2 21.2 14.5 25.9-10.3-3.4-19.2-9-23.4-21.9-7 21.4 5.3 38.5 13 38.5 2.5 0 4.4-1.7 4.4-4.2 0-6.4-11.6-6.4-14.5-18.8 5.3 10.8 25.5 8.9 25.5 20.7 0 9.8-13.6 14-22.4 8 6.4 8.4 21.3 8.7 25.6-1.4.7 4.3-1.3 10.8-7.5 13.1-7 2.7-13.4-2.4-13.4-2.4 7.6 11 20.9 3.6 34 3.9 10.9.2 18.1 5.8 21.3 11.1a15.3 15.3 0 0 0-7.6-2 21.1 21.1 0 0 1 9 21.6c-1.3-6.3-8.6-10.7-22.4-11.7-15.5-1-23.8-3.5-29-9.3 11.1 5 28.9-1.9 41 6-7.5-8.5-24-6-35.8-8-20.7-3.3-33.3-38.3-31.7-53.6-5.6 23.4 9.5 36.2 12.8 49.1a26.5 26.5 0 0 1-10 28.8c10.3-15.4-7.4-24.6-4.6-44.3-5.2 19.2 4.5 24.6 4.5 34.6 0 9.7-8.6 13-10.3 25.5-1.7-12.5-10.3-15.8-10.3-25.5 0-10 9.7-15.4 4.4-34.6 2.8 19.7-14.9 29-4.6 44.3a26.5 26.5 0 0 1-10-28.8c3.4-13 18.5-25.7 12.9-49.1 1.6 15.3-11 50.3-31.8 53.6-11.7 2-28.2-.5-35.7 8 12-8 29.8-1 41-6-5.3 5.8-13.5 8.2-29 9.3-13.8 1-21.1 5.4-22.4 11.7a21.1 21.1 0 0 1 9-21.5 15.3 15.3 0 0 0-7.6 2c3.2-5.4 10.4-11 21.3-11.2 13.1-.3 26.4 7 34-4 0 0-6.4 5.2-13.4 2.5a12.3 12.3 0 0 1-7.5-13c4.3 10 19.2 9.7 25.6 1.3-8.7 6-22.4 1.8-22.4-8 0-11.8 20.2-9.9 25.6-20.7-3 12.4-14.6 12.4-14.6 18.8 0 2.5 1.9 4.2 4.5 4.2 7.6 0 19.8-17 13-38.5-4.3 12.9-13.2 18.5-23.5 21.9 7.4-4.7 15.2-14.4 14.5-26-3.6 15-26.5 18.6-24.3 40.5-6-14.9-.9-26.4 8.7-34.4-21 9.4-13.8 27.3-22.5 43.8a39.9 39.9 0 0 1-36.7 20c5.6-2 12.8-6.3 17.2-22.1 2.9-10.5 4.7-20.3 17-27.2-7.7 12.3-4.6 25.7-15 36.8 14-9.9 10.6-27.7 21.2-41.7-10.6 3.4-19.7 9.4-23.6 18.6 3-15.8 19.7-32.5 49.1-36.5-30.3-1.3-36.1 15.5-51.4 16.1-9.7.4-18.1-8.4-28-13.7 12.1 3.1 31.1 11.4 41.1-2 0 0-6.1 5.2-18.2 3.6-12.3-1.5-23.5-9.4-54.1-11.3 30.6-2 41.8-9.8 54-11.4 12.2-1.5 18.3 3.7 18.3 3.7-10-13.4-29-5.1-41.1-2 9.9-5.4 18.3-14.1 28-13.8 15.3.7 21.1 17.5 51.4 16.2-29.4-4-46.2-20.8-49.1-36.5 4 9.2 13 15.2 23.6 18.6-10.6-14-7.2-31.9-21.1-41.7 10.3 11 7.2 24.5 14.9 36.7-12.3-6.9-14.1-16.7-17-27.1-4.4-15.9-11.6-20.1-17.2-22.2a39.9 39.9 0 0 1 36.7 20.1c8.7 16.5 1.5 34.4 22.5 43.8-9.6-8-14.7-19.6-8.7-34.5-2.2 22 20.7 25.5 24.3 40.5.7-11.5-7.1-21.2-14.5-25.9 10.3 3.4 19.2 9 23.4 21.8 7-21.4-5.3-38.4-12.9-38.4-2.6 0-4.5 1.6-4.5 4.1 0 6.5 11.6 6.5 14.6 18.9-5.3-10.8-25.6-8.9-25.6-20.8 0-9.7 13.7-14 22.4-8-6.4-8.3-21.3-8.6-25.6 1.4a12.3 12.3 0 0 1 7.5-13c7-2.8 13.5 2.4 13.5 2.4-7.7-11-21-3.7-34.1-3.9-10.8-.2-18-5.8-21.3-11.2a15.3 15.3 0 0 0 7.7 2 21.1 21.1 0 0 1-9-21.5c1.2 6.3 8.5 10.7 22.3 11.7 15.5 1 23.8 3.5 29 9.3-11.1-5-28.9 1.9-41-6 7.5 8.5 24 6 35.8 8 20.7 3.2 33.3 38.2 31.7 53.5 5.7-23.4-9.5-36.2-12.8-49.1a26.5 26.5 0 0 1 10-28.8c-10.3 15.4 7.4 24.6 4.6 44.3 5.2-19.2-4.5-24.6-4.5-34.6 0-9.7 8.6-13 10.3-25.5 1.7 12.5 10.3 15.8 10.3 25.5 0 10-9.6 15.4-4.4 34.6-2.8-19.7 14.9-29 4.6-44.3 6.6 5 13.6 14.6 10 28.8-3.4 12.9-18.5 25.7-12.8 49.1-1.7-15.3 11-50.3 31.7-53.6 11.7-2 28.2.5 35.7-8-12 8-29.8 1-41 6 5.3-5.8 13.5-8.3 29-9.3 13.9-1 21.1-5.4 22.4-11.7a21.1 21.1 0 0 1-9 21.5 15.3 15.3 0 0 0 7.7-2 24.8 24.8 0 0 1-21.3 11.2c-13.2.2-26.5-7.1-34.1 3.9 0 0 6.5-5.2 13.5-2.5 6.1 2.4 8.1 8.8 7.4 13.1-4.3-10-19.1-9.7-25.5-1.4 8.7-6 22.3-1.8 22.3 8 0 11.9-20.2 10-25.5 20.8 3-12.5 14.6-12.5 14.6-18.9 0-2.5-2-4.2-4.5-4.2-7.6 0-19.9 17.1-13 38.5 4.3-12.8 13.2-18.5 23.5-21.8-7.4 4.6-15.2 14.3-14.6 25.9 3.7-15 26.6-18.6 24.3-40.5 6 15 1 26.4-8.7 34.4 21-9.3 14-27.2 22.5-43.7a39.9 39.9 0 0 1 36.8-20.1c-5.7 2-12.8 6.3-17.2 22.1-3 10.5-4.8 20.3-17 27.2 7.7-12.3 4.5-25.7 14.9-36.7-14 10-10.6 27.8-21.2 41.8 10.6-3.4 19.7-9.4 23.6-18.6-3 15.7-19.7 32.5-49.1 36.5 30.3 1.3 36.1-15.5 51.4-16.1 9.7-.4 18.1 8.4 28 13.6-12.1-3-31.1-11.3-41.2 2.2 0 0 6.2-5.3 18.3-3.8 12.3 1.6 23.5 9.4 54.1 11.4-30.6 2-41.8 9.8-54 11.4-12.2 1.5-18.4-3.8-18.4-3.8 10 13.5 29 5.2 41.2 2.2-9.9 5.2-18.3 14-28 13.6-15.3-.6-21-17.4-51.4-16.1zm33.3-7.3c4.7 1.2 8.7 3.8 14.5 3.8 7.1 0 11.1-2.8 16.8-3.8-5.7-1-9.7-3.8-16.8-3.8-5.8 0-9.8 2.5-14.5 3.8zm-72.2-90.3c0 5.1 3 8.4 3 12.1 0-3.7 3-7 3-12.1 0-4.6-2.2-6.7-3-11.5-.7 4.8-3 7-3 11.5zm-66.2 90.3c-4.6-1.3-8.6-3.8-14.4-3.8-7.2 0-11.1 2.8-16.8 3.8 5.7 1 9.6 3.8 16.7 3.8 6 0 10-2.6 14.5-3.8zm72.3 90.3c0-5.1-3-8.4-3-12.1 0 3.7-3 7-3 12.1 0 4.6 2.2 6.7 3 11.4.7-4.8 3-6.8 3-11.4zm42-90.3c-10 0-24.1-5-35-3a24.7 24.7 0 0 0 7.4-6.7 28 28 0 0 0-10.1 2.2c2.7-6 3.2-9.3 3.7-15.4a31.4 31.4 0 0 0-6.5 10.7c.7-12.5-4.3-15.3-4.7-31.8-.3 16.5-5.3 19.3-4.6 31.8a31.4 31.4 0 0 0-6.5-10.7c.5 6 1 9.4 3.7 15.4a28 28 0 0 0-10.1-2.2 24.7 24.7 0 0 0 7.4 6.7c-10.8-2-25 3-35 3 10 0 24.1 5 35 3a24.7 24.7 0 0 0-7.4 6.7 28 28 0 0 0 10.1-2.3c-2.7 6-3.2 9.4-3.7 15.5a31.4 31.4 0 0 0 6.6-10.7c-.7 12.5 4.3 15.3 4.6 31.8.4-16.5 5.3-19.3 4.6-31.8a31.4 31.4 0 0 0 6.6 10.7c-.5-6-1-9.5-3.7-15.5a28 28 0 0 0 10 2.3 24.7 24.7 0 0 0-7.4-6.7c11 2 25-3 35-3z"/><path fill="#ed1c24" d="M391.8 138c2.6 13.7 25.3 16.2 30.2 34 3.8-19.1 21.3-19.9 21.6-33.1-3.2 7.8-10.8 5.7-15.9 12 .9-6 4.6-11.8 12.4-15-7.7-1-15.6 1.8-19.1 9.6-2.6-4.2-2.8-8.5-.7-14a15.2 15.2 0 0 0-5.7 16.6c-7.2-7.2-17.9-3.2-22.8-10.2zM464.9 259.2c-4.3-.7-9.4-3.2-14.2-1.2 2.4-1.8 1.2-3.6 2.6-5.2-2 1.4-3.6.5-5 2.7 1.5-5.3-.6-8.1-1.7-14.1-1 6-3.1 8.8-1.6 14.1-1.5-2.2-3-1.3-5-2.7 1.4 1.6.2 3.4 2.5 5.2-4.7-2-9.8.5-14.1 1.2 4.3.7 9.4 3.2 14.1 1.2-2.3 1.8-1.1 3.5-2.5 5.2 2-1.4 3.5-.5 5-2.7-1.5 5.3.5 8.1 1.6 14 1.1-6 3.2-8.7 1.7-14 1.4 2.2 3 1.3 5 2.7-1.4-1.7-.3-3.4-2.6-5.2 4.8 2 9.9-.5 14.2-1.2zM81.5 232c4.7-4.6 7-12.2 7.3-21.7.5-12.5 5.4-17.7 13.3-18.5-11.8 4.5-4.4 17-8 25.8 6.5-4.8 4.5-20.7 17.7-21.4-9.8 3.2-2.8 16.7-9.3 24.5 7.8-.1 11.4 6.1 21.6 3.2-4.8 3.7-10 6-18.9 6 6.3 3.8 9 8.6 11.3 15.3a43.2 43.2 0 0 0-35-13.2zM67.8 190.7a32.8 32.8 0 0 0-11.4 22.7c-1.1-10.2-3.2-18-8.3-24 0 0 6.4 3.1 8.7 9.2 3-5.2 11-8 11-8zM81.8 139.8c-1.2 6-6.3 11.2-13 13.7a21.1 21.1 0 0 0-2-19.8 21.4 21.4 0 0 1-5.9 18 18.2 18.2 0 0 0-1-13.8c.9 8.5-6.2 12.8-15.7 18.4A36.4 36.4 0 0 0 25 183.6c3.5-6.9 10-13.1 27.9-17.3 22.3-5.2 30.4-12.4 28.9-26.5z"/><path fill="#ed1c24" d="M54.9 138c-2.7 13.8-25.4 16.2-30.3 34-3.8-19.1-21.3-19.9-21.6-33.1 3.2 7.8 10.9 5.8 16 12.1a18.9 18.9 0 0 0-12.4-15c7.6-1.2 15.6 1.7 19 9.5 2.6-4.2 2.9-8.5.7-13.9a15.2 15.2 0 0 1 5.7 16.6c7.3-7.3 17.9-3.3 22.9-10.3z"/><path fill="#ed1c24" d="M35.8 266.5c29.5 4 46.3 20.7 49.2 36.5-4-9.2-13-15.2-23.6-18.6 10.6 14 7.2 31.8 21.1 41.7-10.4-11-7.2-24.5-14.9-36.8 12.3 7 14.1 16.7 17 27.2 4.4 15.8 11.6 20 17.2 22.2A39.9 39.9 0 0 1 65 318.6c-8.6-16.5-1.4-34.4-22.4-43.8 9.6 8 14.7 19.5 8.7 34.4 2.2-21.9-20.6-25.5-24.3-40.4-.6 11.5 7.2 21.2 14.6 25.9-10.3-3.4-19.3-9-23.5-21.9-7 21.4 5.3 38.5 12.9 38.5 2.6 0 4.5-1.7 4.5-4.2 0-6.4-11.6-6.4-14.6-18.8 5.4 10.8 25.6 8.9 25.6 20.7 0 9.8-13.6 14-22.4 8 6.4 8.4 21.3 8.7 25.6-1.4.6 4.3-1.3 10.8-7.5 13.1-7 2.7-13.5-2.4-13.5-2.4 7.7 11 21 3.6 34.1 3.9 10.9.2 18.1 5.8 21.3 11.1a15.3 15.3 0 0 0-7.6-2 21.1 21.1 0 0 1 9 21.6c-1.3-6.3-8.6-10.7-22.4-11.7-15.5-1-23.8-3.5-29-9.3 11.1 5 28.8-1.9 41 6-7.5-8.5-24-6-35.8-8-20.7-3.3-33.3-38.2-31.7-53.6-5.6 23.5 9.5 36.2 12.8 49.2a26.4 26.4 0 0 1-10 28.8c10.3-15.4-7.4-24.7-4.6-44.4-5.2 19.2 4.4 24.7 4.4 34.6 0 9.8-8.5 13-10.3 25.6-1.7-12.6-10.2-15.8-10.2-25.6 0-10 9.6-15.4 4.4-34.6 2.8 19.7-14.9 29-4.6 44.4a26.6 26.6 0 0 1-10-28.8c3.4-13 18.5-25.7 12.9-49.2 1.6 15.4-11 50.3-31.7 53.7-11.8 1.9-28.3-.6-35.8 8 12-8 29.8-1.1 41-6-5.2 5.7-13.5 8.2-29 9.3-13.8 1-21.1 5.3-22.4 11.6a21.1 21.1 0 0 1 9-21.5 15.3 15.3 0 0 0-7.6 2c3.1-5.4 10.4-11 21.3-11.2 13-.2 26.4 7.1 34-3.9 0 0-6.5 5.2-13.5 2.5a12.3 12.3 0 0 1-7.4-13.1c4.3 10 19.1 9.7 25.5 1.4-8.7 6-22.3 1.7-22.3-8 0-11.9 20.2-10 25.5-20.8-3 12.4-14.6 12.4-14.6 18.9 0 2.5 2 4.1 4.6 4.1 7.6 0 19.8-17 12.9-38.4-4.2 12.8-13.2 18.4-23.5 21.8 7.5-4.7 15.3-14.4 14.6-26-3.7 15-26.6 18.6-24.3 40.5-6-14.9-1-26.4 8.7-34.4-21 9.4-13.9 27.3-22.5 43.8a39.9 39.9 0 0 1-36.8 20c5.7-2 12.9-6.3 17.3-22.1 2.8-10.5 4.7-20.3 17-27.2-7.7 12.3-4.6 25.7-15 36.8 14-9.9 10.5-27.7 21.2-41.7-10.6 3.4-19.7 9.4-23.6 18.6 3-15.8 19.7-32.5 49.1-36.5-30.3-1.3-36.1 15.5-51.4 16.1-9.7.4-18.1-8.4-28-13.7 12.1 3.1 31.1 11.4 41.2-2 0 0-6.2 5.2-18.3 3.6-12.3-1.5-23.5-9.4-54.1-11.3 30.6-2 41.8-9.8 54-11.4 12.2-1.5 18.4 3.7 18.4 3.7-10-13.4-29-5.1-41.2-2 9.9-5.4 18.4-14.1 28-13.8 15.3.7 21.1 17.5 51.5 16.2-29.5-4-46.3-20.8-49.2-36.5 4 9.2 13 15.2 23.6 18.6-10.6-14-7.2-31.9-21.1-41.7 10.4 11 7.2 24.5 14.9 36.7-12.3-6.9-14.1-16.7-17-27.1-4.4-15.9-11.6-20.1-17.3-22.2A39.9 39.9 0 0 1-65 199.8c8.6 16.5 1.5 34.4 22.5 43.8-9.6-8-14.7-19.6-8.7-34.5-2.2 22 20.6 25.5 24.3 40.5.7-11.5-7.2-21.2-14.5-25.9 10.3 3.4 19.2 9 23.4 21.8 7-21.4-5.3-38.4-12.9-38.4-2.6 0-4.5 1.6-4.5 4.1 0 6.5 11.6 6.5 14.6 18.9-5.4-10.8-25.6-8.9-25.6-20.8 0-9.7 13.6-14 22.4-8-6.4-8.3-21.3-8.6-25.6 1.4a12.3 12.3 0 0 1 7.5-13c7-2.8 13.5 2.4 13.5 2.4-7.7-11-21-3.7-34.1-3.9A24.7 24.7 0 0 1-84.1 177a15.3 15.3 0 0 0 7.6 2 21.1 21.1 0 0 1-9-21.5c1.3 6.3 8.6 10.7 22.4 11.7 15.5 1 23.8 3.5 29 9.3-11.1-5-28.8 1.9-41-6 7.5 8.5 24 6 35.8 8C-18.6 183.7-6 218.7-7.6 234c5.6-23.4-9.5-36.2-12.8-49.1a26.4 26.4 0 0 1 10-28.8C-20.7 171.5-3 180.7-6 200.5c5.3-19.2-4.4-24.7-4.4-34.6 0-9.8 8.6-13 10.3-25.6C1.7 153 10.3 156.1 10.3 166c0 9.9-9.7 15.4-4.5 34.6-2.8-19.8 15-29 4.7-44.4 6.5 5 13.5 14.7 10 28.8C17 197.9 2 210.6 7.6 234c-1.6-15.3 11-50.3 31.7-53.6 11.8-2 28.3.5 35.8-8-12 8-29.8 1-41 6 5.2-5.8 13.5-8.3 29-9.3 13.8-1 21-5.4 22.4-11.7a21.1 21.1 0 0 1-9 21.5 15.3 15.3 0 0 0 7.6-2 24.8 24.8 0 0 1-21.3 11.2c-13 .2-26.4-7.1-34 3.9 0 0 6.5-5.2 13.5-2.5 6.1 2.4 8 8.8 7.4 13.1-4.3-10-19.1-9.7-25.5-1.4 8.7-6 22.3-1.8 22.3 8 0 11.9-20.2 10-25.5 20.8 3-12.5 14.6-12.5 14.6-18.9 0-2.5-2-4.2-4.6-4.2-7.6 0-19.8 17.1-12.9 38.5 4.2-12.8 13.2-18.5 23.5-21.8-7.4 4.6-15.2 14.3-14.6 25.9 3.7-15 26.6-18.6 24.3-40.5 6 15 1 26.4-8.7 34.4 21-9.3 13.9-27.2 22.5-43.7a39.9 39.9 0 0 1 36.8-20.1c-5.7 2.2-12.9 6.4-17.3 22.3-2.9 10.4-4.7 20.2-17 27.1 7.7-12.2 4.6-25.7 15-36.7C68.5 202 72 220 61.3 234 72 230.6 81 224.6 85 215.4c-3 15.7-19.7 32.5-49.1 36.5 30.3 1.3 36.1-15.5 51.4-16.2 9.7-.3 18.1 8.4 28 13.7-12.1-3-31.1-11.3-41.2 2.2 0 0 6.2-5.3 18.3-3.8 12.3 1.6 23.5 9.4 54.1 11.4-30.6 2-41.8 9.8-54.1 11.3-12 1.6-18.3-3.7-18.3-3.7 10 13.5 29 5.2 41.2 2.1-10 5.3-18.4 14.1-28 13.7-15.3-.6-21.1-17.4-51.5-16.1zm33.4-7.3c4.6 1.2 8.6 3.8 14.5 3.8 7.1 0 11-2.8 16.7-3.8-5.6-1-9.6-3.8-16.7-3.8-5.9 0-9.9 2.5-14.5 3.8zM-3 168.9c0 5.1 3 8.4 3 12.1 0-3.7 3-7 3-12.1 0-4.6-2.3-6.7-3-11.5-.8 4.8-3 7-3 11.5zm-66.2 90.3c-4.6-1.3-8.6-3.8-14.5-3.8-7.1 0-11 2.8-16.7 3.8 5.6 1 9.6 3.8 16.7 3.8 5.9 0 9.9-2.6 14.5-3.8zM3 349.5c0-5.1-3-8.4-3-12.1 0 3.7-3 7-3 12.1 0 4.6 2.3 6.7 3 11.4.8-4.8 3-6.8 3-11.4zm42-90.3c-9.9 0-24-5-35-3a24.7 24.7 0 0 0 7.5-6.7 28 28 0 0 0-10.1 2.2c2.6-6 3.2-9.3 3.7-15.4A31.4 31.4 0 0 0 4.5 247c.8-12.5-4.2-15.3-4.5-31.8-.4 16.5-5.3 19.3-4.6 31.7a31.4 31.4 0 0 0-6.6-10.6c.5 6 1 9.4 3.7 15.4a28 28 0 0 0-10-2.3 24.7 24.7 0 0 0 7.4 6.8c-10.9-2-25 3-35 3 10 0 24 5 35 3a24.7 24.7 0 0 0-7.5 6.7 28 28 0 0 0 10.2-2.3c-2.7 6-3.3 9.4-3.8 15.4a31.4 31.4 0 0 0 6.6-10.6c-.7 12.5 4.2 15.3 4.6 31.8.3-16.5 5.3-19.3 4.6-31.8a31.4 31.4 0 0 0 6.6 10.7c-.5-6-1-9.5-3.7-15.5a28 28 0 0 0 10 2.3 24.7 24.7 0 0 0-7.4-6.7c10.9 2 25-3 35-3z"/><path fill="#ed1c24" d="M18.2 259.2c-4.2-.7-9.4-3.2-14.1-1.2 2.3-1.8 1.1-3.5 2.5-5.2-1.9 1.4-3.5.5-5 2.7 1.6-5.3-.5-8.1-1.6-14.1-1.1 6-3.2 8.8-1.6 14.1-1.5-2.2-3.1-1.3-5-2.7 1.4 1.6.2 3.4 2.5 5.2-4.7-2-9.9.5-14.1 1.2 4.2.7 9.4 3.2 14.1 1.2-2.3 1.8-1.1 3.5-2.5 5.2 1.9-1.4 3.5-.5 5-2.7-1.6 5.3.5 8.1 1.6 14.1 1.1-6 3.2-8.8 1.6-14.1 1.5 2.2 3.1 1.3 5 2.7-1.4-1.7-.2-3.4-2.5-5.2 4.7 2 9.9-.5 14.1-1.2zM391.8 121.3c2.6-13.9 25.3-16.3 30.2-34 3.8 19 21.3 19.8 21.6 33-3.2-7.8-10.8-5.8-15.9-12 .9 6 4.6 11.8 12.4 15-7.7 1-15.6-1.8-19.1-9.6-2.6 4.2-2.8 8.5-.7 13.9a15.2 15.2 0 0 1-5.7-16.6c-7.2 7.3-17.9 3.3-22.8 10.3zM378.8 68.5a32.8 32.8 0 0 0 11.5-22.8c1 10.3 3.2 18.2 8.2 24 0 0-6.3-3-8.6-9.1-3 5.2-11 7.9-11 7.9z"/><path fill="#ed1c24" d="M364.8 119.4c1.3-6 6.3-11.2 13-13.8a21.1 21.1 0 0 0 2.1 19.8 21.5 21.5 0 0 1 5.8-18 18.2 18.2 0 0 0 1 13.9c-.9-8.5 6.2-12.8 15.7-18.4a36.1 36.1 0 0 0 19.3-27.3c-3.5 6.9-10 13.2-28 17.3-22.2 5.1-30.3 12.4-28.9 26.5z"/><path fill="#ed1c24" d="M482.5 7.3c29.4 4 46.2 20.8 49.1 36.5-3.9-9.2-13-15.2-23.6-18.6 10.6 14 7.2 31.9 21.1 41.7-10.3-11-7.2-24.5-14.9-36.7 12.3 6.9 14.2 16.6 17 27.1 4.4 15.9 11.6 20.1 17.3 22.2a39.9 39.9 0 0 1-36.8-20.1c-8.6-16.5-1.5-34.4-22.5-43.8 9.6 8 14.7 19.5 8.7 34.4 2.3-21.9-20.6-25.5-24.3-40.4-.6 11.5 7.2 21.2 14.5 25.9-10.3-3.4-19.2-9-23.4-21.8-7 21.4 5.3 38.4 13 38.4 2.5 0 4.4-1.7 4.4-4.1 0-6.5-11.6-6.5-14.5-18.9C472.9 39.9 493 38 493 49.9c0 9.7-13.6 14-22.4 8 6.4 8.3 21.3 8.6 25.6-1.5.7 4.4-1.3 10.8-7.5 13.2-7 2.7-13.4-2.5-13.4-2.5 7.6 11 20.9 3.7 34 3.9 10.9.2 18.1 5.8 21.3 11.2a15.1 15.1 0 0 0-7.6-2 21.1 21.1 0 0 1 9 21.4c-1.2-6.2-8.5-10.6-22.3-11.6-15.6-1-23.8-3.6-29-9.3 11.1 5 28.8-2 41 6-7.5-8.5-24-6-35.8-8-20.7-3.3-33.3-38.3-31.7-53.6-5.7 23.4 9.5 36.2 12.8 49.1a26.5 26.5 0 0 1-10 28.8c10.3-15.4-7.4-24.6-4.6-44.3-5.2 19.1 4.5 24.6 4.5 34.6 0 9.7-8.6 13-10.3 25.5-1.7-12.6-10.3-15.8-10.3-25.6 0-9.9 9.6-15.4 4.4-34.6 2.8 19.8-14.9 29-4.6 44.4a26.5 26.5 0 0 1-10-28.8c3.4-13 18.5-25.7 12.8-49.1 1.7 15.3-11 50.3-31.7 53.6-11.8 1.9-28.2-.6-35.7 8 12-8 29.8-1 41-6-5.3 5.8-13.6 8.3-29.1 9.3-13.8 1-21 5.4-22.4 11.6a21.1 21.1 0 0 1 9-21.4 15.1 15.1 0 0 0-7.6 2c3.2-5.4 10.5-11 21.3-11.2 13.2-.2 26.5 7.1 34.1-4 0 0-6.5 5.3-13.5 2.6a12.3 12.3 0 0 1-7.4-13.2c4.3 10 19.1 9.8 25.5 1.5-8.7 6-22.3 1.7-22.3-8 0-12 20.2-10 25.5-20.8-3 12.4-14.6 12.4-14.6 18.9 0 2.5 2 4.2 4.5 4.2 7.6 0 19.9-17.1 13-38.5-4.3 12.9-13.2 18.5-23.5 21.8 7.4-4.7 15.2-14.3 14.6-25.9-3.7 15-26.6 18.5-24.3 40.4-6-14.9-1-26.4 8.7-34.4-21.1 9.4-14 27.3-22.5 43.8a39.9 39.9 0 0 1-36.8 20c5.7-2 12.8-6.2 17.2-22 3-10.6 4.8-20.3 17-27.2-7.7 12.2-4.5 25.7-14.9 36.7 14-9.8 10.5-27.7 21.1-41.7-10.6 3.4-19.6 9.4-23.6 18.6 3-15.7 19.7-32.5 49.2-36.5-30.3-1.3-36.2 15.5-51.5 16.1-9.6.4-18-8.3-28-13.6 12.1 3 31.1 11.3 41.2-2.2 0 0-6.2 5.3-18.3 3.8C342 9.8 330.7 2 300.1 0c30.6-2 41.8-9.8 54.1-11.3 12-1.6 18.3 3.7 18.3 3.7-10-13.5-29-5.2-41.2-2.2 10-5.2 18.4-14 28-13.6 15.3.6 21.2 17.4 51.5 16.1-29.4-4-46.2-20.8-49.1-36.5 3.9 9.2 13 15.2 23.6 18.6-10.7-14-7.2-31.9-21.2-41.7 10.4 11 7.3 24.5 15 36.7-12.3-6.9-14.2-16.6-17-27.1-4.5-15.9-11.6-20.1-17.3-22.2a39.9 39.9 0 0 1 36.8 20.1c8.6 16.5 1.4 34.4 22.5 43.8-9.7-8-14.8-19.5-8.7-34.4C393-28.1 416-24.5 419.7-9.6c.6-11.5-7.2-21.2-14.6-25.9 10.3 3.4 19.2 9 23.4 21.8 7-21.3-5.3-38.4-12.9-38.4-2.6 0-4.5 1.7-4.5 4.2 0 6.4 11.7 6.4 14.6 18.8-5.3-10.8-25.5-8.9-25.5-20.8 0-9.7 13.6-14 22.3-8-6.4-8.3-21.2-8.6-25.5 1.5a12.3 12.3 0 0 1 7.4-13.2c7-2.7 13.5 2.5 13.5 2.5-7.6-11-21-3.7-34-3.9a24.8 24.8 0 0 1-21.4-11.2 15.1 15.1 0 0 0 7.7 2 21.1 21.1 0 0 1-9-21.4c1.2 6.2 8.5 10.6 22.3 11.6 15.5 1 23.8 3.6 29 9.3-11.1-5-28.9 2-41-6 7.5 8.5 24 6 35.8 8 20.7 3.2 33.3 38.2 31.7 53.6 5.7-23.5-9.5-36.3-12.8-49.2a26.5 26.5 0 0 1 10-28.8c-10.3 15.4 7.4 24.6 4.6 44.4 5.2-19.2-4.5-24.7-4.5-34.6 0-9.8 8.6-13 10.3-25.6 1.7 12.6 10.3 15.8 10.3 25.6 0 10-9.6 15.4-4.4 34.6-2.8-19.8 14.9-29 4.6-44.4 6.6 5 13.6 14.7 10 28.8-3.4 13-18.5 25.7-12.8 49.1-1.7-15.3 11-50.3 31.7-53.6 11.7-1.9 28.2.6 35.7-8-12 8-29.8 1-41 6 5.3-5.7 13.6-8.2 29.1-9.2 13.8-1 21-5.4 22.4-11.6a21.1 21.1 0 0 1-9 21.4 15.1 15.1 0 0 0 7.6-2A24.8 24.8 0 0 1 509.5-71c-13.1.2-26.4-7.1-34 4 0 0 6.4-5.3 13.4-2.6 6.2 2.4 8.1 8.8 7.5 13.2-4.3-10-19.2-9.8-25.6-1.5 8.7-6 22.4-1.7 22.4 8 0 12-20.3 10-25.6 20.8 3-12.4 14.6-12.4 14.6-18.9 0-2.4-1.9-4.1-4.5-4.1-7.6 0-19.8 17-13 38.4C469-26.5 478-32 488.3-35.5c-7.4 4.7-15.2 14.4-14.6 26 3.7-15 26.6-18.6 24.3-40.5 6 14.9 1 26.3-8.7 34.4 21-9.4 13.9-27.3 22.5-43.8a39.9 39.9 0 0 1 36.8-20c-5.7 2-12.8 6.2-17.2 22-3 10.6-4.8 20.3-17 27.2 7.7-12.2 4.5-25.7 14.9-36.7-14 9.8-10.5 27.7-21.2 41.7 10.7-3.4 19.7-9.4 23.6-18.6-2.9 15.7-19.7 32.5-49.1 36.5 30.3 1.3 36.1-15.5 51.4-16.1 9.7-.4 18.2 8.3 28 13.6-12-3-31-11.3-41.1 2.2 0 0 6.2-5.3 18.2-3.8C551.4-9.8 562.5-2 593.2 0c-30.7 2-41.9 9.8-54.1 11.4-12.1 1.5-18.3-3.8-18.3-3.8 10 13.5 29 5.2 41.2 2.2-10 5.2-18.4 14-28 13.6-15.4-.6-21.2-17.4-51.5-16.1zM515.8 0c4.7 1.2 8.7 3.8 14.5 3.8 7.1 0 11.1-2.8 16.8-3.8-5.7-1-9.7-3.8-16.8-3.8-5.8 0-9.8 2.6-14.5 3.8zm-72.2-90.3c0 5.1 3 8.4 3 12.1 0-3.7 3-7 3-12.1 0-4.6-2.2-6.7-3-11.5-.7 4.8-3 7-3 11.5zM377.4 0c-4.6-1.2-8.6-3.8-14.4-3.8-7.2 0-11.1 2.8-16.8 3.8 5.7 1 9.6 3.8 16.7 3.8 6 0 10-2.6 14.5-3.8zm72.3 90.3c0-5.1-3-8.4-3-12.1 0 3.7-3 7-3 12.1 0 4.6 2.2 6.7 3 11.4.7-4.7 3-6.8 3-11.4zm42-90.3c-10 0-24-5-35-3a24.6 24.6 0 0 0 7.5-6.7A28 28 0 0 0 454-7.4c2.7-6 3.2-9.4 3.8-15.5a31.5 31.5 0 0 0-6.6 10.7c.8-12.5-4.2-15.3-4.6-31.8-.3 16.5-5.3 19.3-4.6 31.8a31.5 31.5 0 0 0-6.5-10.7c.5 6 1 9.4 3.7 15.4A28 28 0 0 0 429-9.8a24.6 24.6 0 0 0 7.4 6.8c-10.8-2-25 3-35 3 10 0 24.1 5 35 3a24.6 24.6 0 0 0-7.4 6.7 28 28 0 0 0 10-2.3c-2.6 6-3.1 9.4-3.6 15.5a31.5 31.5 0 0 0 6.5-10.7c-.7 12.5 4.3 15.3 4.6 31.8.4-16.5 5.3-19.3 4.6-31.8a31.5 31.5 0 0 0 6.6 10.7c-.5-6-1-9.4-3.7-15.4a28 28 0 0 0 10 2.3 24.6 24.6 0 0 0-7.4-6.8c11 2 25-3 35-3z"/><path fill="#ed1c24" d="M365.1 27.2c-4.7 4.6-6.9 12.2-7.3 21.7-.4 12.5-5.4 17.7-13.3 18.5 11.8-4.6 4.5-17.1 8-25.8-6.5 4.8-4.4 20.6-17.7 21.4 9.8-3.2 2.9-16.7 9.3-24.5-7.8.1-11.4-6.1-21.5-3.2 4.7-3.7 10-6 18.8-6-6.2-3.8-9-8.6-11.3-15.3a43.2 43.2 0 0 0 35 13.2zM464.9 0c-4.3-.7-9.4-3.2-14.2-1.2 2.4-1.8 1.2-3.5 2.6-5.2-2 1.4-3.6.5-5 2.7 1.5-5.3-.6-8.1-1.7-14-1 6-3.1 8.7-1.6 14-1.5-2.2-3-1.3-5-2.7 1.4 1.7.2 3.4 2.5 5.2-4.7-2-9.8.5-14.1 1.2 4.3.7 9.4 3.2 14.1 1.2-2.3 1.8-1.1 3.5-2.5 5.2 2-1.4 3.5-.5 5-2.7-1.5 5.3.5 8.1 1.6 14 1.1-6 3.2-8.7 1.7-14 1.4 2.2 3 1.3 5 2.7-1.4-1.7-.3-3.4-2.6-5.2 4.8 2 9.9-.5 14.2-1.2zM168.4 250.9c2.7-13.9 25.4-16.3 30.3-34.1 3.8 19.1 21.3 19.9 21.6 33.1-3.2-7.8-10.9-5.8-16-12.1 1 6.2 4.7 11.9 12.5 15-7.7 1.2-15.7-1.8-19.2-9.5-2.5 4.2-2.8 8.5-.6 13.9a15.2 15.2 0 0 1-5.7-16.6c-7.2 7.3-17.9 3.3-22.9 10.3zM278.2 250.9c-2.6-13.9-25.4-16.3-30.3-34.1-3.8 19.1-21.3 19.9-21.5 33.1 3.1-7.8 10.8-5.8 15.9-12.1a18.9 18.9 0 0 1-12.4 15c7.6 1.2 15.6-1.8 19.1-9.5 2.5 4.2 2.8 8.5.7 13.9a15.2 15.2 0 0 0 5.6-16.6c7.3 7.3 18 3.3 22.9 10.3zM304.9 102.4c4.6-4.6 6.9-12.2 7.2-21.7.5-12.5 5.4-17.7 13.3-18.5-11.8 4.5-4.4 17-7.9 25.8 6.4-4.8 4.4-20.7 17.6-21.4-9.7 3.2-2.8 16.7-9.3 24.5 7.9-.1 11.4 6.1 21.6 3.2-4.7 3.7-10 6-18.9 6 6.3 3.8 9 8.6 11.3 15.3a43.3 43.3 0 0 0-35-13.2zM155.5 61.1A32.8 32.8 0 0 1 167 83.8c1-10.2 3.2-18 8.2-24 0 0-6.3 3.1-8.6 9.2-3-5.2-11-7.9-11-7.9zM141.5 10.2c1.2 6 6.3 11.2 13 13.7a21.1 21.1 0 0 1 2.1-19.7 21.5 21.5 0 0 0 5.8 18 18.2 18.2 0 0 1 1-14c-.9 8.6 6.2 12.9 15.7 18.5A36.1 36.1 0 0 1 198.3 54c-3.4-7-9.9-13.2-27.8-17.3-22.3-5.2-30.4-12.4-29-26.5zM141.8 102.4c-4.7-4.6-7-12.2-7.3-21.7-.5-12.5-5.4-17.7-13.3-18.5 11.8 4.5 4.4 17 8 25.8-6.5-4.8-4.5-20.7-17.7-21.4 9.8 3.2 2.8 16.7 9.3 24.5-7.8 0-11.4 6.1-21.6 3.3 4.8 3.6 10 5.9 18.9 5.9-6.3 3.8-9 8.6-11.3 15.3a43.2 43.2 0 0 1 35-13.2zM291.1 61.1a32.8 32.8 0 0 0-11.4 22.8c-1.1-10.3-3.2-18.2-8.2-24 0 0 6.3 3 8.6 9.1 2.9-5.2 11-7.9 11-7.9zM305.1 10.2c-1.2 6-6.3 11.2-12.9 13.7A21.1 21.1 0 0 0 290 4.2a21.4 21.4 0 0 1-5.8 18 18.2 18.2 0 0 0-1-14c.9 8.6-6.2 12.9-15.7 18.5A36.1 36.1 0 0 0 248.3 54c3.4-7 9.9-13.2 27.8-17.3 22.4-5.2 30.5-12.4 29-26.5z"/><path fill="#ed1c24" d="M278.2 8.3c-2.6 13.9-25.4 16.3-30.3 34-3.8-19-21.3-19.8-21.5-33 3.1 7.8 10.8 5.8 15.9 12a18.8 18.8 0 0 0-12.4-15c7.6-1 15.6 1.8 19 9.6 2.6-4.2 2.9-8.5.8-13.9a15.2 15.2 0 0 1 5.6 16.6c7.3-7.3 18-3.3 22.9-10.3zM155.5 198a32.8 32.8 0 0 0 11.5-22.7c1 10.3 3.2 18.2 8.2 24 0 0-6.3-3-8.6-9.1-3 5.2-11 7.9-11 7.9zM141.5 249c1.2-6 6.3-11.2 13-13.7a21.1 21.1 0 0 0 2.1 19.7 21.5 21.5 0 0 1 5.8-18 18.2 18.2 0 0 0 1 13.9c-.9-8.5 6.2-12.8 15.7-18.5a36 36 0 0 0 19.2-27.2c-3.4 6.9-9.9 13.1-27.8 17.3-22.3 5.1-30.4 12.4-29 26.5z"/><path fill="#ed1c24" d="M259.2 136.9c29.4 4 46.2 20.8 49.1 36.5-4-9.2-13-15.2-23.6-18.6 10.6 14 7.2 31.9 21.1 41.7-10.3-11-7.2-24.5-14.9-36.7 12.3 6.9 14.1 16.6 17 27.1 4.4 15.9 11.6 20 17.2 22.2a39.9 39.9 0 0 1-36.7-20.1c-8.7-16.5-1.5-34.4-22.5-43.8a28 28 0 0 1 8.7 34.4c2.2-21.9-20.7-25.5-24.3-40.4-.7 11.5 7.1 21.2 14.5 25.9-10.3-3.4-19.2-9-23.4-21.8-7 21.4 5.3 38.4 12.9 38.4 2.6 0 4.5-1.7 4.5-4.1 0-6.5-11.6-6.5-14.6-19 5.4 11 25.6 9 25.6 20.9 0 9.7-13.7 14-22.4 8 6.4 8.3 21.3 8.6 25.6-1.5.6 4.3-1.3 10.8-7.5 13.2-7 2.7-13.5-2.5-13.5-2.5 7.7 11 21 3.7 34.1 3.9 10.9.2 18.1 5.8 21.3 11.2a15.3 15.3 0 0 0-7.6-2 21.1 21.1 0 0 1 9 21.4c-1.3-6.2-8.6-10.6-22.4-11.6-15.5-1-23.8-3.6-29-9.3 11.1 5 28.8-2 41 6-7.5-8.5-24-6.1-35.8-8C242 205 229.3 170 231 154.7c-5.7 23.5 9.5 36.2 12.8 49.2a26.4 26.4 0 0 1-10 28.8c10.3-15.4-7.4-24.6-4.6-44.4-5.3 19.2 4.4 24.7 4.4 34.6 0 9.8-8.6 13-10.3 25.6-1.7-12.6-10.3-15.8-10.3-25.6 0-10 9.7-15.4 4.4-34.6 2.8 19.7-14.9 29-4.6 44.4a26.5 26.5 0 0 1-10-28.8c3.4-13 18.5-25.7 12.9-49.2 1.6 15.4-11 50.4-31.7 53.7-11.8 1.9-28.3-.6-35.8 8 12-8 29.8-1.1 41-6-5.3 5.7-13.5 8.2-29 9.3-13.8 1-21.1 5.4-22.4 11.6a21.1 21.1 0 0 1 9-21.5 15.3 15.3 0 0 0-7.6 2c3.1-5.3 10.4-11 21.2-11.1 13.2-.3 26.5 7 34.1-4 0 0-6.5 5.2-13.5 2.5a12.3 12.3 0 0 1-7.4-13c4.3 10 19.1 9.7 25.5 1.3-8.7 6.1-22.3 1.8-22.3-8 0-11.9 20.2-9.9 25.5-20.7-3 12.4-14.6 12.4-14.6 18.8 0 2.5 2 4.2 4.6 4.2 7.5 0 19.8-17 12.9-38.5-4.2 12.9-13.2 18.5-23.5 21.9 7.4-4.7 15.2-14.4 14.6-26-3.7 15-26.6 18.6-24.3 40.5-6-14.9-1-26.4 8.7-34.4-21 9.4-13.9 27.3-22.5 43.8a39.9 39.9 0 0 1-36.8 20c5.7-2 12.9-6.3 17.2-22.1 3-10.5 4.8-20.3 17-27.2-7.6 12.3-4.5 25.7-14.9 36.8 14-9.9 10.5-27.7 21.2-41.7-10.7 3.4-19.7 9.4-23.6 18.6 2.9-15.8 19.7-32.5 49.1-36.5-30.3-1.4-36 15.4-51.4 16-9.7.4-18.1-8.4-28-13.7 12.1 3 31.1 11.3 41.2-2.1 0 0-6.2 5.3-18.3 3.7-12.3-1.5-23.5-9.4-54.1-11.3 30.6-2 41.8-9.8 54-11.4 12.2-1.5 18.3 3.8 18.3 3.8-10-13.4-29-5.2-41.1-2.1 9.9-5.3 18.3-14 28-13.7 15.3.6 21.1 17.4 51.5 16.2-29.5-4-46.3-20.8-49.2-36.6 4 9.3 13 15.2 23.6 18.6-10.6-14-7.2-31.8-21.1-41.7 10.4 11 7.2 24.5 14.9 36.8-12.3-7-14.1-16.7-17-27.2-4.4-15.8-11.6-20-17.2-22.2a39.9 39.9 0 0 1 36.8 20.1c8.6 16.6 1.4 34.5 22.4 43.8-9.6-8-14.7-19.5-8.7-34.4-2.2 22 20.7 25.5 24.3 40.5.7-11.6-7.1-21.3-14.5-26 10.3 3.4 19.2 9 23.4 21.9 7-21.4-5.3-38.5-12.9-38.5-2.6 0-4.5 1.7-4.5 4.2 0 6.4 11.6 6.4 14.6 18.8-5.3-10.8-25.6-8.8-25.6-20.7 0-9.8 13.7-14 22.4-8-6.4-8.4-21.3-8.6-25.6 1.4a12.5 12.5 0 0 1 7.5-13.2c7-2.7 13.5 2.5 13.5 2.5-7.7-11-21-3.7-34-4a24.8 24.8 0 0 1-21.4-11.1 15.1 15.1 0 0 0 7.7 2 21.1 21.1 0 0 1-9-21.5c1.3 6.3 8.5 10.7 22.3 11.7 15.6 1 23.8 3.5 29.1 9.3-11.2-5-29 1.9-41-6 7.5 8.5 24 6 35.7 8 20.7 3.3 33.3 38.3 31.7 53.6 5.7-23.4-9.4-36.2-12.8-49.1a26.5 26.5 0 0 1 10-28.8c-10.3 15.4 7.4 24.6 4.6 44.3 5.2-19.2-4.5-24.7-4.5-34.6 0-9.8 8.6-13 10.3-25.6 1.7 12.6 10.3 15.8 10.3 25.6 0 9.9-9.7 15.4-4.5 34.6-2.8-19.8 15-29 4.7-44.4 6.5 5 13.5 14.7 10 28.8-3.4 13-18.5 25.7-12.8 49.1-1.6-15.3 11-50.3 31.7-53.6 11.8-1.9 28.3.6 35.7-8-12 8-29.8 1-41 6 5.3-5.7 13.6-8.2 29.1-9.3 13.8-1 21-5.4 22.4-11.6a21.1 21.1 0 0 1-9 21.4 15.1 15.1 0 0 0 7.6-2 24.8 24.8 0 0 1-21.3 11.2c-13.1.2-26.4-7-34 4 0 0 6.4-5.3 13.4-2.6 6.2 2.4 8.1 8.9 7.5 13.2-4.3-10-19.2-9.8-25.6-1.5 8.7-6 22.4-1.7 22.4 8 0 12-20.2 10-25.6 20.8C247.3 88 259 88 259 81.5c0-2.4-1.9-4.1-4.5-4.1-7.6 0-19.8 17-12.9 38.4 4.2-12.8 13.1-18.4 23.4-21.8-7.4 4.7-15.2 14.4-14.5 26 3.6-15 26.5-18.6 24.3-40.5 6 14.9.9 26.3-8.7 34.4 21-9.4 13.8-27.3 22.5-43.8a39.9 39.9 0 0 1 36.7-20c-5.6 2-12.8 6.2-17.2 22-2.9 10.6-4.7 20.3-17 27.2 7.7-12.2 4.6-25.7 15-36.7-14 9.8-10.6 27.7-21.2 41.7 10.6-3.4 19.7-9.4 23.6-18.6-3 15.7-19.7 32.5-49.1 36.5 30.3 1.3 36.1-15.5 51.4-16.1 9.7-.4 18.2 8.4 28 13.6-12.1-3-31.1-11.3-41.1 2.2 0 0 6.1-5.3 18.2-3.8 12.3 1.6 23.5 9.4 54.1 11.4-30.6 2-41.8 9.8-54 11.4-12.2 1.5-18.3-3.8-18.3-3.8 10 13.5 29 5.2 41.1 2.2-9.9 5.2-18.3 14-28 13.6-15.4-.5-21.2-17.3-51.5-16zm33.3-7.3c4.6 1.2 8.7 3.8 14.5 3.8 7.1 0 11-2.8 16.8-3.8-5.7-1-9.7-3.8-16.8-3.8-5.9 0-9.9 2.5-14.5 3.8zm-72.2-90.3c0 5.1 3 8.4 3 12.1 0-3.7 3-7 3-12.1 0-4.6-2.3-6.7-3-11.4-.8 4.7-3 6.8-3 11.4zm-66.2 90.3c-4.6-1.2-8.6-3.8-14.5-3.8-7 0-11 2.8-16.7 3.8 5.7 1 9.6 3.8 16.7 3.8 5.9 0 10-2.6 14.5-3.8zm72.2 90.3c0-5.1-3-8.4-3-12.1 0 3.7-3 7-3 12.1 0 4.6 2.3 6.7 3 11.4.8-4.7 3-6.8 3-11.4zm42-90.3c-9.9 0-24-5-35-3a24.8 24.8 0 0 0 7.5-6.8c-4.4.5-6.8.8-10.1 2.4 2.6-6 3.2-9.4 3.7-15.5a31.5 31.5 0 0 0-6.6 10.7c.8-12.5-4.2-15.3-4.6-31.8-.3 16.5-5.3 19.3-4.6 31.8a31.5 31.5 0 0 0-6.5-10.7c.5 6 1 9.4 3.7 15.5a28.3 28.3 0 0 0-10.1-2.4 24.8 24.8 0 0 0 7.4 6.8c-10.8-2-25 3-35 3 10 0 24.1 5 35 3a24.7 24.7 0 0 0-7.4 6.7c4.4-.4 6.7-.8 10-2.3-2.6 6-3.1 9.4-3.6 15.5a31.4 31.4 0 0 0 6.5-10.7c-.7 12.4 4.3 15.3 4.6 31.8.4-16.5 5.4-19.4 4.6-31.8a31.4 31.4 0 0 0 6.6 10.7c-.5-6-1-9.5-3.7-15.5 3.3 1.5 5.7 1.9 10.1 2.3a24.7 24.7 0 0 0-7.5-6.7c11 2 25.1-3 35-3z"/><path fill="#ed1c24" d="M291.1 198a32.8 32.8 0 0 1-11.4-22.7c-1.1 10.3-3.2 18.2-8.2 24 0 0 6.3-3 8.6-9.1 2.9 5.2 11 7.9 11 7.9zM305.1 249c-1.2-6-6.3-11.2-12.9-13.7A21.1 21.1 0 0 1 290 255a21.4 21.4 0 0 0-5.8-18 18.2 18.2 0 0 1-1 13.9c.9-8.5-6.2-12.8-15.7-18.5a36 36 0 0 1-19.2-27.2c3.4 6.9 9.9 13.1 27.8 17.3 22.4 5.1 30.5 12.4 29 26.5zM304.9 156.8c4.6 4.6 6.9 12.1 7.2 21.7.5 12.5 5.4 17.6 13.3 18.5-11.7-4.6-4.4-17.1-7.9-25.8 6.4 4.7 4.4 20.6 17.6 21.4-9.7-3.2-2.8-16.7-9.3-24.5 7.9 0 11.4-6.2 21.6-3.3-4.7-3.6-10-5.9-18.9-5.9 6.3-3.8 9-8.6 11.3-15.3a43.1 43.1 0 0 1-35 13.2zM141.8 156.8c-4.7 4.6-7 12.1-7.3 21.7-.5 12.5-5.4 17.6-13.3 18.5 11.8-4.6 4.4-17.1 8-25.8-6.5 4.7-4.5 20.6-17.7 21.4 9.8-3.2 2.8-16.7 9.3-24.5-7.8 0-11.4-6.2-21.6-3.3 4.8-3.6 10-5.9 18.9-5.9-6.3-3.8-9-8.6-11.3-15.3a43.1 43.1 0 0 0 35 13.2zM168.4 8.3c2.7 13.9 25.4 16.3 30.3 34 3.8-19 21.3-19.8 21.6-33-3.2 7.8-10.9 5.8-16 12 1-6 4.7-11.8 12.5-15-7.7-1-15.7 1.8-19.2 9.6-2.5-4.2-2.8-8.5-.6-13.9a15.2 15.2 0 0 0-5.7 16.6c-7.2-7.3-17.9-3.3-22.9-10.3zM241.5 129.6c-4.2-.7-9.4-3.2-14-1.2 2.2-1.8 1-3.5 2.4-5.2-1.9 1.4-3.5.5-5 2.7 1.6-5.3-.5-8.1-1.6-14.1-1 6-3.2 8.8-1.6 14.1-1.5-2.2-3-1.3-5-2.7 1.4 1.7.2 3.4 2.5 5.2-4.7-2-9.9.5-14.1 1.2 4.2.7 9.4 3.2 14.1 1.2-2.3 1.8-1.1 3.5-2.5 5.2 1.9-1.4 3.5-.5 5-2.7-1.6 5.3.5 8.1 1.6 14 1.1-6 3.2-8.7 1.6-14 1.5 2.2 3.1 1.3 5 2.7-1.4-1.7-.2-3.4-2.5-5.2 4.8 2 9.9-.5 14.1-1.2zM54.9 121.3c-2.7-13.9-25.4-16.3-30.3-34-3.8 19-21.3 19.8-21.6 33 3.2-7.8 10.9-5.8 16-12a18.8 18.8 0 0 1-12.4 15c7.6 1 15.6-1.8 19-9.6 2.6 4.2 2.9 8.5.7 13.9A15.2 15.2 0 0 0 32 111c7.3 7.3 17.9 3.3 22.9 10.3z"/><path fill="#ed1c24" d="M35.8 7.3C65.3 11.3 82.1 28 85 43.8c-4-9.2-13-15.2-23.6-18.6C72 39.2 68.6 57 82.5 66.9c-10.4-11-7.2-24.5-14.9-36.7C80 37 81.7 46.8 84.6 57.3 89 73.2 96.2 77.4 102 79.5A39.9 39.9 0 0 1 65 59.4C56.5 42.9 63.6 25 42.6 15.6c9.6 8 14.7 19.5 8.7 34.4C53.5 28.1 30.7 24.5 27 9.6c-.6 11.5 7.2 21.2 14.6 25.9-10.3-3.4-19.3-9-23.5-21.8C11.1 35 23.4 52 31 52c2.6 0 4.5-1.7 4.5-4.2 0-6.4-11.6-6.4-14.6-18.8 5.4 10.8 25.6 8.9 25.6 20.8 0 9.7-13.6 14-22.4 8 6.4 8.3 21.3 8.6 25.6-1.5.6 4.3-1.3 10.8-7.5 13.2-7 2.7-13.5-2.5-13.5-2.5 7.7 11 21 3.7 34.1 3.9 10.9.2 18.1 5.8 21.3 11.2a15.1 15.1 0 0 0-7.6-2 21.1 21.1 0 0 1 9 21.4C84.2 95.4 77 91 63.2 90c-15.6-1-23.8-3.6-29.1-9.3 11.2 5 28.9-2 41 6-7.5-8.5-24-6-35.7-8C18.6 75.5 6 40.5 7.6 25.1 2 48.6 17.1 61.4 20.4 74.3a26.5 26.5 0 0 1-10 28.8C20.7 87.7 3 78.5 5.8 58.7.6 78 10.2 83.4 10.2 93.3c0 9.8-8.5 13-10.2 25.6-1.8-12.6-10.3-15.8-10.3-25.6 0-10 9.6-15.4 4.4-34.6 2.8 19.8-14.9 29-4.6 44.4a26.6 26.6 0 0 1-10-28.8c3.4-13 18.5-25.7 12.9-49.1 1.6 15.3-11 50.3-31.7 53.6-11.8 1.9-28.3-.6-35.8 8 12-8 29.8-1 41-6-5.3 5.7-13.5 8.2-29 9.2-13.8 1-21.1 5.4-22.4 11.6a21.1 21.1 0 0 1 9-21.4 15.1 15.1 0 0 0-7.6 2C-81 76.8-73.7 71.2-63 71c13.2-.2 26.5 7.1 34.1-4 0 0-6.5 5.3-13.5 2.6a12.3 12.3 0 0 1-7.4-13.2c4.3 10 19.1 9.8 25.5 1.5-8.7 6-22.3 1.7-22.3-8 0-12 20.2-10 25.5-20.8-2.9 12.4-14.5 12.4-14.5 18.9 0 2.5 1.9 4.2 4.5 4.2 7.6 0 19.8-17.1 12.9-38.5-4.2 12.8-13.1 18.4-23.4 21.8 7.4-4.7 15.2-14.4 14.5-26-3.7 15-26.6 18.6-24.3 40.5-6-14.9-1-26.3 8.7-34.4-21 9.4-13.9 27.3-22.5 43.8-8 15.6-25 20.5-36.8 20 5.7-2 12.9-6.3 17.3-22 2.9-10.6 4.7-20.3 17-27.2-7.7 12.2-4.6 25.7-15 36.7 14-9.8 10.6-27.7 21.2-41.7C-72 28.6-81 34.6-85 43.8c3-15.7 19.7-32.5 49.2-36.5C-66.2 6-72 22.8-87.3 23.4c-9.7.4-18.1-8.3-28-13.6 12.1 3 31.1 11.3 41.2-2.2 0 0-6.2 5.3-18.3 3.8C-104.7 9.8-116 2-146.6 0c30.7-2 41.9-9.8 54.2-11.3 12-1.6 18.2 3.7 18.2 3.7-10-13.5-29-5.2-41.1-2.2 9.9-5.2 18.3-14 28-13.6C-72-22.8-66.2-6-35.8-7.3-65.3-11.3-82.1-28-85-43.8c4 9.2 13 15.2 23.6 18.6-10.6-14-7.2-31.9-21.1-41.7 10.4 11 7.2 24.5 14.9 36.7-12.3-6.9-14.1-16.6-17-27.1-4.4-15.9-11.6-20.1-17.3-22.2A39.9 39.9 0 0 1-65-59.4c8.6 16.5 1.5 34.4 22.5 43.8-9.6-8-14.7-19.5-8.7-34.4C-53.5-28.1-30.7-24.5-27-9.6c.6-11.5-7.2-21.2-14.6-25.9 10.3 3.4 19.3 9 23.5 21.8C-11.1-35-23.4-52-31-52c-2.6 0-4.5 1.7-4.5 4.2 0 6.4 11.6 6.4 14.6 18.8-5.4-10.8-25.6-8.9-25.6-20.8 0-9.7 13.6-14 22.4-8-6.4-8.3-21.3-8.6-25.6 1.5a12.3 12.3 0 0 1 7.5-13.2c7-2.7 13.5 2.5 13.5 2.5-7.7-11-21-3.7-34.1-3.9a24.8 24.8 0 0 1-21.3-11.2 15.1 15.1 0 0 0 7.6 2 21.1 21.1 0 0 1-9-21.4C-84.2-95.4-77-91-63.2-90c15.6 1 23.8 3.6 29.1 9.3-11.2-5-28.9 2-41-6 7.5 8.5 24 6 35.7 8C-18.6-75.5-6-40.5-7.6-25.1c5.6-23.5-9.5-36.3-12.8-49.2a26.7 26.7 0 0 1 10-28.8C-20.8-87.7-3-78.5-6-58.7c5.3-19.2-4.4-24.7-4.4-34.6 0-9.8 8.6-13 10.3-25.6 1.7 12.6 10.3 15.8 10.3 25.6 0 10-9.7 15.4-4.5 34.6-2.8-19.8 15-29 4.7-44.4 6.5 5 13.5 14.7 10 28.8C17-61.3 2-48.6 7.6-25.2 6-40.5 18.6-75.4 39.3-78.8c11.8-1.9 28.3.6 35.8-8-12 8-29.8 1-41 6 5.3-5.7 13.5-8.2 29-9.2 13.8-1 21-5.4 22.4-11.6a21.1 21.1 0 0 1-9 21.4 15.1 15.1 0 0 0 7.7-2A24.8 24.8 0 0 1 62.9-71c-13.2.2-26.5-7.1-34.1 4 0 0 6.5-5.3 13.5-2.6 6.1 2.4 8 8.8 7.4 13.2-4.3-10-19.1-9.8-25.5-1.5 8.7-6 22.3-1.7 22.3 8 0 12-20.2 10-25.5 20.8C24-41.5 35.6-41.5 35.6-48c0-2.4-2-4.1-4.5-4.1-7.6 0-19.9 17-13 38.4C22.4-26.5 31.3-32 41.6-35.5 34.1-30.8 26.3-21 27-9.5c3.6-15 26.5-18.6 24.3-40.5 6 15 .9 26.4-8.7 34.4 21-9.3 13.8-27.2 22.5-43.8a39.8 39.8 0 0 1 36.8-20c-5.7 2-12.9 6.2-17.3 22-2.9 10.6-4.7 20.3-17 27.2 7.7-12.2 4.6-25.7 15-36.7C68.5-57 72-39.2 61.3-25.2 72-28.6 81-34.6 85-43.8 82-28.1 65.3-11.3 35.8-7.3 66.2-6 72-22.8 87.3-23.4c9.7-.4 18.1 8.3 28 13.6-12.1-3-31.1-11.3-41.2 2.2 0 0 6.2-5.3 18.3-3.8C104.7-9.8 115.9-2 146.6 0c-30.7 2-41.9 9.8-54.2 11.4-12 1.5-18.2-3.8-18.2-3.8 10 13.5 29 5.2 41.1 2.2-9.9 5.2-18.3 14-28 13.6C72 22.8 66.2 6 35.8 7.3zM69.2 0c4.6 1.2 8.6 3.8 14.5 3.8 7.1 0 11-2.8 16.7-3.8-5.6-1-9.6-3.8-16.7-3.8-5.9 0-9.9 2.6-14.5 3.8zM-3-90.3c0 5.1 3 8.4 3 12.1 0-3.7 3-7 3-12.1C3-95 .8-97 0-101.8c-.8 4.8-3 7-3 11.5zM-69.2 0c-4.6-1.2-8.6-3.8-14.5-3.8-7.1 0-11 2.8-16.7 3.8 5.6 1 9.6 3.8 16.7 3.8 5.9 0 9.9-2.6 14.5-3.8zM3 90.3c0-5.1-3-8.4-3-12.1 0 3.7-3 7-3 12.1C-3 95-.8 97 0 101.7.8 97 3 95 3 90.3zM45 0c-9.9 0-24-5-34.9-3a24.6 24.6 0 0 0 7.5-6.7A28 28 0 0 0 7.4-7.4c2.7-6 3.3-9.4 3.8-15.5a31.5 31.5 0 0 0-6.6 10.7C5.3-24.7.3-27.5 0-44c-.4 16.5-5.3 19.3-4.6 31.8A31.5 31.5 0 0 0-11.2-23c.5 6 1 9.4 3.7 15.4a27.3 27.3 0 0 0-10-2.3A24.6 24.6 0 0 0-10.2-3c-10.9-2-25 3-35 3 10 0 24 5 35 3a24.6 24.6 0 0 0-7.5 6.7A28 28 0 0 0-7.4 7.4c-2.7 6-3.3 9.4-3.8 15.5a31.5 31.5 0 0 0 6.6-10.7C-5.3 24.7-.4 27.5 0 44c.3-16.5 5.3-19.3 4.6-31.8A31.5 31.5 0 0 0 11.2 23c-.5-6-1-9.4-3.7-15.4 3.3 1.5 5.7 1.8 10 2.3A24.6 24.6 0 0 0 10.2 3c10.9 2 25-3 35-3z"/><path fill="#ed1c24" d="M67.8 68.5a32.8 32.8 0 0 1-11.4-22.8C55.3 56 53.2 64 48 69.8c0 0 6.4-3 8.7-9.1 3 5.2 11 7.9 11 7.9zM81.8 119.4c-1.2-6-6.3-11.2-13-13.8a21.1 21.1 0 0 1-2 19.8 21.4 21.4 0 0 0-5.9-18 18.2 18.2 0 0 1-1 13.9c.9-8.5-6.2-12.8-15.7-18.4A36.3 36.3 0 0 1 25 75.6c3.5 6.9 10 13.1 27.9 17.3 22.3 5.1 30.4 12.4 28.9 26.5zM81.5 27.2c4.7 4.6 7 12.2 7.3 21.7.5 12.5 5.4 17.7 13.3 18.5-11.8-4.6-4.4-17.1-8-25.8 6.5 4.8 4.5 20.6 17.7 21.4-9.8-3.2-2.8-16.7-9.3-24.5 7.8 0 11.4-6.1 21.6-3.2-4.8-3.7-10-6-18.9-6 6.3-3.8 9-8.6 11.3-15.3a43.1 43.1 0 0 1-35 13.2zM18.2 0C14-.7 8.8-3.2 4.1-1.2 6.4-3 5.2-4.7 6.6-6.4 4.7-5 3.1-6 1.6-3.7c1.6-5.3-.5-8.1-1.6-14-1.1 5.9-3.2 8.7-1.6 14-1.5-2.2-3.1-1.3-5-2.7 1.4 1.7.2 3.4 2.5 5.2-4.7-2-9.9.5-14.1 1.2 4.2.7 9.4 3.2 14.1 1.2C-6.4 3-5.2 4.7-6.6 6.4c1.9-1.4 3.5-.5 5-2.7-1.6 5.3.5 8.1 1.6 14 1.1-5.9 3.2-8.7 1.6-14 1.5 2.2 3.1 1.3 5 2.7C5.2 4.7 6.4 3 4.1 1.2 8.8 3.2 14 .7 18.2 0z"/></pattern></defs><circle cx="255.9" cy="255.9" r="254.1" fill="#be1e2d"/><circle cx="255.9" cy="255.9" r="254.1" fill="url(#a)" stroke="#231f20" stroke-miterlimit="10" stroke-width="3"/><rect width="359.4" height="359.4" x="76.2" y="76.2" fill="#fff200" stroke="#231f20" stroke-miterlimit="10" stroke-width="3" rx=".6" ry=".6" transform="rotate(-45 256 255.9)"/><path fill="#231f20" stroke="#231f20" stroke-miterlimit="10" d="M358.9 136.9s-6.2 2.6-20.4-.7-67.4-20-88.9-20.2-41.5 7.6-46.6 13.9c0 0-8.3-.3-13.2 1.5s-6.3-2.3-11.9 1-6.3 6.3-9.8 6.9-9 .5-11.4 2.5-7.1 7.8-10.4 9.4-9.4 2.2-11 10 9.4 7.2 9.4 7.2a18.4 18.4 0 0 0 6.9 3.5s2.8 6.9 1.5 9.4-8.6 6.8-10.1 9.9-.3 8.6-.3 8.6-1.2-7.4 5.3-11.2 8.7-7 7.9-13.4c0 0 3.3.8.8 6.4s-8.4 10.8-8.1 14.9a13.6 13.6 0 0 0 3.2 7.3s-2.5-4.8-1-7.3 8.1-8.9 9.7-13.2 2.5-6.6-1.6-16.4c0 0 2.6-1.8 6.4.2s14.2 5.8 12.6 10.1-23.5 24.6-24.5 55 8.6 41.3 8.6 41.3 10.1 10.9 9.6 14.5-2 14.4-3.8 21-3.8 7.8-3.8 14.4-7.9 15-7.9 15a12.2 12.2 0 0 0-4.3 4c-1.7 2.8-2 6-4 7s-11 4.9-12.6 7.7a68.5 68.5 0 0 0-3.6 8.3s-.5 3.3 3.8 1.3 6.3-.5 6.3-.5a7.8 7.8 0 0 0 4.8-.3c2.3-1 5.6-4.8 5.6-4.8l1 1.8s2.5-4.8 2.8-7.6c0 0 5.3 2 7.3 1.3a13.6 13.6 0 0 1-.2-8.1c1.2-4.3 2.5-9.7 3.8-12.7s1.7-7 3.8-8.1 3.3-3 4.8-6.6 4.6-12.1 6.6-16 5.8-10.1 5.8-10.1a12 12 0 0 0 .5-6c-.6-3 8.5 7 9 14s1.8 24 3.2 27 4.1 10.8 1.6 19.3-2.6 6.7-2.6 6.7-3.6 4-3.5 7.9c0 0-8.4 5.6-10.3 10.4s-1.2 6.2-1.2 6.2a6.8 6.8 0 0 1-1.9 3.5c-1.6 1.7 5.7.8 5.7.8s12.4-3.6 14.8-6.9 3.3-11.7 3.3-11.7 6.1 2.5 6.2 1-1.5-9.1-1-15.5.2-17.8.2-17.8a34.9 34.9 0 0 0 2.4-13.6l.3-26.7a4.3 4.3 0 0 0 3.2-3 13.5 13.5 0 0 0 .4-4.5s30.9 5.4 43.9 5.4 35.2-5 35.2-5 3.7 15.4 5.2 19.4 5 8.3 4.3 13.3.5 7.6-.9 9.4-7.8 11.9-7.8 11.9a14.8 14.8 0 0 0-5.8 5c-2 3.1-1.8 6.5-3 8s-3.2 4.2-6.4 5.8-4.4.4-6.8 3.4-8.4 13-8.4 13-1.9 2.1 3.2.6 10.4 0 17.2-4 8.4-13.8 8.4-13.8l7.5-.3s.2-14.3 4.4-19.8 9.2-13.2 9.2-13.2 4.2-1 4.6-5-.1-4.6-1.3-7.7-2.4-2.5-2.6-5-2-13.7 3.1-22.2a65 65 0 0 0 14.5 11.8c8.8 5.3 15.2 8 17.7 11.6s9.4 13.7 9.3 20.4v17.5a14.8 14.8 0 0 0-1.8 6c0 3-.3 7.4-.3 7.4s-6 6.3-8 10.8c-1.5 3-2 9.3-2 9.3l3.5-4.3a20.2 20.2 0 0 0-1.2 7.4s11-1.8 15-8 2.2-14.4 2.2-14.4.1-4.9 2-5.4 6.3 1.6 4.5-3.6-6-17.6-6-25.6 2.6-14.3 2.3-18-11.6-9.3-12-18.1.5-47-4-54.4c0 0 13.1 8.1 22.5 7.6s12.2-4.7 11.5-8c0 0-7 1.6-12.1-.3s-30.7-18.2-51.5-18.3-61.3 5-73.2 5-16-3.8-29.6-4.7-15.7.7-15.7.7-3.5-5.5-.1-10.4 18.5-29.7 17.2-44.4c0 0 20.1 11.9 31.4 6 0 0-10.9-4-16-9.2s-13.8-10.4-18-10.3c0 0-4-2.8 1.3-3.8s28.1-3 41-.6 39.8 10.2 50.6 11.6 37.8 3.9 45.3-2.1c0 0-14 2.8-54.3-6.6-15.4-3.6-23.6-9.7-40-11.2s-42.6-1.1-42.6-1.1-3.5-2.2.3-2.5 28-.6 28.5-5.6a36.5 36.5 0 0 1-10.2 1 97.7 97.7 0 0 0-21-.3s-3.3-.9 1.8-1.6 19.1-4.3 28.6-3.3 49.3 8.9 65.5 13.8 32.2 8.8 40.7-.2z"/></svg>